<?xml version="1.0" encoding="iso-8859-1"?>
<!-- Uploaded to: SVG Repo, www.svgrepo.com, Generator: SVG Repo Mixer Tools -->
<svg fill="#000000" height="800px" width="800px" version="1.1" id="Layer_1" xmlns="http://www.w3.org/2000/svg" xmlns:xlink="http://www.w3.org/1999/xlink" 
	 viewBox="0 0 512 512" xml:space="preserve">
<g>
	<g>
		<g>
			<path d="M349.091,139.636c3.491,11.636,5.818,23.273,6.982,36.073c1.164,5.818,6.982,10.473,12.8,9.309s10.473-6.982,9.309-12.8
				c-1.164-11.636-3.491-22.109-5.818-33.745h69.818c5.818,11.636,10.473,24.436,15.127,38.4c1.164,5.818,8.146,9.309,13.964,8.145
				s9.309-8.145,8.145-13.964C452.655,70.982,360.727,0,256,0C128,0,23.273,104.727,23.273,232.727s103.564,231.564,231.564,232.727
				H256c25.6,0,50.036-3.491,73.309-11.636c5.818-2.327,9.309-8.145,6.982-15.127c-2.327-5.818-8.145-9.309-13.964-6.982
				c8.145-8.145,15.127-18.618,22.109-30.255c3.491-5.818,1.164-12.8-4.655-16.291s-12.8-1.164-16.291,4.655
				c-16.291,27.927-36.073,46.545-57.018,51.2v-91.927h69.818c6.982,0,11.636-4.655,11.636-11.636
				c0-6.982-4.655-11.636-11.636-11.636h-69.818v-81.455h70.982c6.982,0,11.636-4.655,11.636-11.636s-4.655-11.636-11.636-11.636
				h-69.818v-81.455H349.091z M430.545,116.364h-62.836c-10.473-33.745-25.6-61.673-43.055-81.455
				C367.709,50.036,404.945,77.964,430.545,116.364z M188.509,34.909c-17.455,19.782-32.582,47.709-43.055,81.455h-29.091
				c-6.982,0-11.636,4.655-11.636,11.636s4.655,11.636,11.636,11.636h22.109c-5.818,25.6-9.309,52.364-10.473,81.455H46.545
				C52.364,134.982,109.382,61.673,188.509,34.909z M81.455,349.091h62.836c10.473,33.745,25.6,61.673,43.055,81.455
				C144.291,415.418,107.055,386.327,81.455,349.091z M244.364,441.018c-30.255-6.982-58.182-40.727-74.473-91.927h74.473V441.018z
				 M244.364,325.818H68.655c-12.8-24.436-19.782-52.364-20.945-81.455h81.455c0,16.291,1.164,32.582,3.491,47.709
				c1.164,5.818,5.818,10.473,11.636,10.473h1.164c5.818-1.164,10.473-6.982,9.309-12.8c-2.327-15.127-3.491-30.255-3.491-45.382
				h58.182c6.982,0,11.636-4.655,11.636-11.636s-4.655-11.636-11.636-11.636h-58.182c1.164-29.091,4.655-57.018,11.636-81.455
				h81.455V325.818z M256,46.545c-6.982,0-11.636,4.655-11.636,11.636v58.182h-74.473c18.618-55.855,51.2-93.091,86.109-93.091
				c34.909,0,67.491,37.236,86.109,93.091h-74.473V58.182C267.636,51.2,262.982,46.545,256,46.545z"/>
			<path d="M473.6,399.127c-4.655-5.818-8.145-13.964-8.145-22.109V235.055c0-25.6-19.782-47.709-44.218-48.873
				c-12.8,0-25.6,3.491-34.909,12.8c-8.145,9.309-13.964,20.945-13.964,33.745v144.291c0,8.146-2.327,16.291-8.145,22.109
				c-12.8,16.291-17.455,36.073-13.964,55.855c4.655,27.927,26.764,50.036,53.527,55.855C408.436,512,414.255,512,418.909,512
				c16.291,0,31.418-5.818,44.218-15.127c16.291-12.8,25.6-32.582,25.6-54.691C488.727,425.891,482.909,410.764,473.6,399.127z
				 M448,478.255c-11.636,9.309-25.6,12.8-39.564,9.309c-17.455-3.491-32.582-18.618-36.073-37.236
				c-2.327-13.964,1.164-26.764,9.309-37.236c8.145-10.473,12.8-23.273,12.8-37.236V232.727c0-6.982,2.327-12.8,6.982-17.455
				c5.818-3.491,11.636-5.818,17.455-5.818h1.164c11.636,1.164,22.109,11.636,22.109,25.6v141.964c0,12.8,4.655,26.764,12.8,36.073
				c6.982,8.145,10.473,18.618,10.473,29.091C465.455,456.145,459.636,468.945,448,478.255z"/>
			<path d="M430.545,422.4V290.909c0-6.982-4.655-11.636-11.636-11.636s-11.636,4.655-11.636,11.636V422.4
				c-6.982,3.491-11.636,11.636-11.636,19.782c0,12.8,10.473,23.273,23.273,23.273s23.273-10.473,23.273-23.273
				C442.182,434.036,437.527,425.891,430.545,422.4z"/>
		</g>
	</g>
</g>
</svg>