<?xml version="1.0" encoding="iso-8859-1"?>
<!-- Uploaded to: SVG Repo, www.svgrepo.com, Generator: SVG Repo Mixer Tools -->
<svg fill="#000000" height="800px" width="800px" version="1.1" id="Layer_1" xmlns="http://www.w3.org/2000/svg" xmlns:xlink="http://www.w3.org/1999/xlink" 
	 viewBox="0 0 512 512" xml:space="preserve">
<g>
	<g>
		<g>
			<path d="M156.834,38.554C188.041,24.294,221.406,17.067,256,17.067c17.289,0,34.475,1.843,51.191,5.495
				c-0.759,14.362,5.291,23.962,9.515,30.66c1.186,1.886,2.807,4.463,2.978,5.171c0,35.251-7.134,42.667-8.533,42.667
				c-15.36,0-41.566,14.319-51.081,32.094c-5.828,10.872-5.359,22.374,1.314,32.375c4.813,7.219,8.934,15.215,12.928,22.938
				c8.218,15.915,17.331,33.579,31.343,33.579c2.884,0,5.973-0.751,9.31-2.415c11.136-5.572,19.302-21.769,27.204-37.427
				c3.763-7.458,9.336-18.509,12.484-21.325c11.204,1.109,16.358,10.556,23.356,25.711c4.787,10.368,9.737,21.094,19.243,25.848
				c16.478,8.218,70.844-0.538,100.983-13.338c0.358-0.154,0.597-0.444,0.922-0.631c0.495-0.299,0.973-0.58,1.399-0.956
				c0.41-0.375,0.734-0.794,1.058-1.237c0.324-0.427,0.631-0.853,0.87-1.34c0.247-0.495,0.384-0.998,0.529-1.536
				c0.137-0.521,0.265-1.024,0.307-1.579c0.034-0.572-0.034-1.118-0.111-1.698c-0.051-0.375,0.026-0.734-0.077-1.109
				c-20.659-76.399-76.791-139.955-150.161-170.001c-4.36-1.783-9.344,0.299-11.127,4.659c-1.783,4.361,0.299,9.344,4.659,11.128
				c66.116,27.085,117.146,83.345,137.95,151.364c-31.795,11.546-72.166,14.711-79.573,10.999
				c-4.147-2.074-7.825-10.027-11.375-17.724c-6.758-14.635-16.009-34.671-39.313-35.703c-11.52-0.41-18.099,12.612-27.264,30.78
				c-5.7,11.315-13.517,26.812-19.593,29.85c-4.42,2.227-11.58-11.554-17.86-23.723c-4.011-7.765-8.55-16.572-13.892-24.576
				c-3.191-4.779-3.336-9.506-0.469-14.865c7.134-13.329,27.93-23.074,36.036-23.074c16.99,0,25.6-20.096,25.6-59.733
				c0-5.367-2.722-9.685-5.606-14.268c-4.343-6.878-8.823-13.995-6.135-26.274c0.99-4.506-1.784-8.969-6.246-10.103
				C298.377,2.611,277.257,0,256,0c-37.06,0-72.806,7.748-106.257,23.023c-4.284,1.963-6.17,7.023-4.215,11.307
				C147.49,38.622,152.55,40.516,156.834,38.554z"/>
			<path d="M375.117,262.46c-3.132,0.896-7.031,2.014-8.183,2.074c-13.03,0-21.129,9.882-27.622,17.826
				c-2.978,3.644-7.492,9.148-9.719,9.148c-0.367,0-0.896-0.162-1.51-0.469c-4.284-2.15-8.772-3.226-13.355-3.226
				c-11.042,0-20.591,6.502-22.707,15.471c-1.468,6.229,0.742,14.771,11.366,20.087c16.171,8.081,32.896,16.444,40.448,23.996
				c4.83,4.83,13.278,7.603,23.185,7.603c15.138,0,35.251-7.339,42.146-28.006c2.91-8.73,10.069-15.582,16.384-21.623
				c7.33-7.023,14.259-13.653,14.362-22.869c0.06-5.402-2.364-10.598-7.211-15.437c-6.69-6.69-15.846-10.086-27.204-10.086
				C394.419,256.947,383.266,260.13,375.117,262.46z M422.844,282.283c-0.017,2.039-5.478,7.27-9.097,10.726
				c-7.364,7.049-16.529,15.812-20.779,28.561c-4.011,12.041-16.034,16.333-25.95,16.333c-6.434,0-10.266-1.749-11.119-2.603
				c-9.515-9.515-26.692-18.108-44.885-27.196c-0.998-0.503-1.647-0.973-2.031-1.306c1.374-1.331,6.699-2.884,11.469-0.495
				c3.012,1.502,6.093,2.27,9.139,2.27c10.317-0.008,17.015-8.183,22.929-15.403c5.717-6.989,9.805-11.571,14.413-11.571
				c3.328,0,7.33-1.143,12.877-2.731c7.177-2.048,16.998-4.855,25.685-4.855c6.758,0,11.716,1.664,15.138,5.086
				C422.46,280.926,422.852,282.018,422.844,282.283z"/>
			<path d="M215.834,364.433c1.664,1.664,3.849,2.5,6.033,2.5c2.185,0,4.369-0.836,6.033-2.5
				c9.481-9.481,13.73-20.693,11.964-31.573c-1.442-8.858-7.006-16.905-14.182-20.497c-3.072-1.527-7.1-2.705-11.767-4.062
				c-8.431-2.458-21.171-6.17-24.329-12.194c-0.649-1.246-1.348-3.371,0.034-7.543c2.517-7.544,4.804-11.836,6.81-15.625
				c5.504-10.334,8.371-17.101,8.371-46.805c0-15.625-7.501-27.733-21.137-34.082c-4.258-1.971-9.336-0.137-11.332,4.139
				c-1.988,4.275-0.137,9.344,4.13,11.341c7.484,3.482,11.273,9.737,11.273,18.603c0,26.829-2.398,31.326-6.366,38.784
				c-2.21,4.164-4.975,9.344-7.936,18.253c-2.551,7.654-2.202,14.669,1.041,20.855c6.528,12.467,22.793,17.203,34.671,20.659
				c3.55,1.033,7.211,2.099,8.909,2.953c1.604,0.802,4.25,3.576,4.966,7.953c0.87,5.402-1.613,11.204-7.185,16.777
				C212.497,355.703,212.497,361.097,215.834,364.433z"/>
			<path d="M93.867,452.267c0,4.71,3.823,8.533,8.533,8.533c28.237,0,51.2-22.963,51.2-51.2c0-4.71-3.823-8.533-8.533-8.533
				c-4.71,0-8.533,3.823-8.533,8.533c0,18.825-15.309,34.133-34.133,34.133C97.69,443.733,93.867,447.556,93.867,452.267z"/>
			<path d="M509.568,220.57c-0.64-4.668-5.001-7.936-9.626-7.279c-4.668,0.64-7.927,4.949-7.279,9.626
				c1.51,10.871,2.27,22.008,2.27,33.084c0,131.746-107.187,238.933-238.933,238.933c-37.026,0-56.047-7.714-56.405-7.859
				c-4.309-1.826-9.327,0.171-11.17,4.497c-1.86,4.335,0.154,9.353,4.48,11.204C193.783,503.151,214.904,512,256,512
				c141.158,0,256-114.842,256-256C512,244.139,511.181,232.218,509.568,220.57z"/>
			<path d="M153.6,320.998V85.333c0-28.237-22.963-51.2-51.2-51.2c-28.237,0-51.2,22.963-51.2,51.2v8.533
				c0,4.71,3.823,8.533,8.533,8.533s8.533-3.823,8.533-8.533v-8.533c0-18.825,15.309-34.133,34.133-34.133
				c18.825,0,34.133,15.309,34.133,34.133v240.725c0,3.209,1.792,6.144,4.642,7.603c28.723,14.694,46.558,43.793,46.558,75.938
				c0,47.053-38.281,85.333-85.333,85.333S17.067,456.653,17.067,409.6c0-32.145,17.835-61.244,46.558-75.938
				c2.85-1.459,4.642-4.395,4.642-7.603v-35.925H76.8c4.71,0,8.533-3.823,8.533-8.533s-3.823-8.533-8.533-8.533h-8.533v-34.133H76.8
				c4.71,0,8.533-3.823,8.533-8.533s-3.823-8.533-8.533-8.533h-8.533v-34.133H76.8c4.71,0,8.533-3.823,8.533-8.533
				s-3.823-8.533-8.533-8.533h-8.533v-34.133h42.667c4.71,0,8.533-3.823,8.533-8.533s-3.823-8.533-8.533-8.533h-51.2
				c-4.71,0-8.533,3.823-8.533,8.533v192.998C19.49,339.302,0,372.787,0,409.6C0,466.065,45.935,512,102.4,512
				c56.465,0,102.4-45.935,102.4-102.4C204.8,372.787,185.31,339.302,153.6,320.998z"/>
			<path d="M258.884,460.143c9.02,0,17.442-3.243,23.1-8.9c12.988-12.988,2.825-34.833-8.533-46.199
				c-2.603-2.603-6.016-3.977-9.873-3.977c-11.81,0-25.745,13.764-30.865,26.129c-3.908,9.429-2.782,18.193,3.072,24.047
				C241.442,456.9,249.865,460.143,258.884,460.143z M248.192,434.475c2.697-7.424,10.65-14.635,14.404-16.085
				c6.562,7.296,10.359,17.749,7.322,20.787c-4.89,4.89-17.186,4.881-22.067,0C247.108,438.434,247.569,436.173,248.192,434.475z"/>
		</g>
	</g>
</g>
</svg>