<?xml version="1.0" encoding="UTF-8"?>
<!-- The Best Svg Icon site in the world: iconSvg.co, Visit us! https://iconsvg.co -->
<svg fill="#000000" width="800px" height="800px" version="1.1" viewBox="144 144 512 512" xmlns="http://www.w3.org/2000/svg">
 <g>
  <path d="m291.75 253.74c0 20.992-17.02 38.012-38.012 38.012-20.996 0-38.016-17.02-38.016-38.012 0-20.996 17.02-38.016 38.016-38.016 20.992 0 38.012 17.02 38.012 38.016"/>
  <path d="m253.82 199.77c3.207 0 5.8008-2.5938 5.8008-5.7266v-24.961c0-3.207-2.5938-5.7266-5.8008-5.7266-3.2031 0-5.7227 2.5977-5.7227 5.7266v24.887c0 3.2031 2.5938 5.8008 5.7227 5.8008z"/>
  <path d="m225.65 200.69c0.91797 2.2148 3.0547 3.5859 5.3438 3.5859 0.76172 0 1.4492-0.15234 2.2148-0.45703 2.9766-1.2227 4.3516-4.582 3.1289-7.5586l-5.418-13.129c-1.2227-2.9766-4.582-4.3516-7.5586-3.1289s-4.3516 4.582-3.1289 7.5586z"/>
  <path d="m183.21 230.69 13.129 5.418c0.6875 0.30469 1.4492 0.45703 2.2148 0.45703 2.2891 0 4.4258-1.375 5.3438-3.5859 1.2227-2.9766-0.15234-6.3359-3.1289-7.5586l-13.129-5.3398c-2.9805-1.2969-6.3359 0.15234-7.5586 3.0508-1.2227 2.9805 0.23047 6.3359 3.1289 7.5586z"/>
  <path d="m196.34 271.22-13.129 5.418c-2.9766 1.2227-4.3516 4.582-3.1289 7.5586 0.91797 2.2148 3.0547 3.5859 5.3438 3.5859 0.76172 0 1.4492-0.15234 2.2148-0.45703l13.129-5.418c2.9766-1.2227 4.3516-4.582 3.1289-7.5586-1.2969-2.9766-4.6562-4.3516-7.5586-3.1289z"/>
  <path d="m225.5 306.72-5.418 13.129c-1.2227 2.9023 0.15234 6.3359 3.1289 7.5586 0.6875 0.30469 1.4492 0.45703 2.2148 0.45703 2.2891 0 4.4258-1.2969 5.3438-3.5859l5.418-13.129c1.2227-2.9023-0.15234-6.3359-3.1289-7.5586-2.9766-1.2227-6.3359 0.22656-7.5586 3.1289z"/>
  <path d="m281.98 327.94c0.76172 0 1.4492-0.15234 2.2148-0.45703 2.9766-1.2227 4.3516-4.582 3.1289-7.5586l-5.418-13.129c-1.2227-2.9766-4.582-4.3516-7.5586-3.1289-2.9766 1.2227-4.3516 4.582-3.1289 7.5586l5.418 13.129c0.91797 2.2148 3.1289 3.5859 5.3438 3.5859z"/>
  <path d="m324.27 276.79-13.129-5.418c-2.9023-1.2227-6.3359 0.15234-7.5586 3.1289-1.2227 2.9766 0.15234 6.3359 3.1289 7.5586l13.129 5.418c0.6875 0.30469 1.4492 0.45703 2.2148 0.45703 2.2891 0 4.4258-1.375 5.3438-3.5859 1.2227-2.9766-0.15234-6.3359-3.1289-7.5586z"/>
  <path d="m303.66 233.13c0.91797 2.2148 3.0547 3.5859 5.3438 3.5859 0.76172 0 1.4492-0.15234 2.2148-0.45703l13.129-5.418c2.9766-1.2227 4.3516-4.582 3.1289-7.5586-1.2227-2.9023-4.582-4.3516-7.5586-3.1289l-13.129 5.418c-2.9766 1.3008-4.3516 4.6602-3.1289 7.5586z"/>
  <path d="m274.5 203.89c0.6875 0.30469 1.4492 0.45703 2.2148 0.45703 2.2891 0 4.4258-1.2969 5.3438-3.5859l5.418-13.129c1.2227-2.9023-0.15234-6.3359-3.1289-7.5586-2.9023-1.2227-6.3359 0.15234-7.5586 3.1289l-5.418 13.129c-1.2227 2.9766 0.15234 6.3359 3.1289 7.5586z"/>
  <path d="m207.48 215.5c1.1445 1.1445 2.5938 1.6797 4.0469 1.6797 1.4492 0 2.9766-0.53516 4.1211-1.6797 2.2148-2.2148 2.2148-5.8789 0-8.168l-17.559-17.559c-2.2148-2.2148-5.8789-2.2148-8.168 0-2.2891 2.2148-2.2148 5.8789 0 8.168z"/>
  <path d="m169.09 259.46h24.887c3.207 0 5.8008-2.5938 5.8008-5.7266 0-3.207-2.5938-5.7266-5.8008-5.7266l-24.887 0.003906c-3.1289-0.074219-5.7266 2.4414-5.7266 5.6484 0 3.207 2.5977 5.8008 5.7266 5.8008z"/>
  <path d="m207.33 291.91-17.559 17.559c-2.2148 2.2148-2.2148 5.8789 0 8.168 1.1445 1.1445 2.5938 1.6797 4.0469 1.6797 1.4492 0 2.9766-0.53516 4.0469-1.6797l17.559-17.559c2.2148-2.2148 2.2148-5.8789 0-8.168-2.1367-2.293-5.8008-2.293-8.0938 0z"/>
  <path d="m259.46 338.39v-24.887c0-3.207-2.5938-5.7266-5.7266-5.7266-3.207 0-5.8008 2.5938-5.8008 5.7266v24.887c0 3.207 2.5938 5.7266 5.8008 5.7266 3.1328 0 5.7266-2.5195 5.7266-5.7266z"/>
  <path d="m291.91 291.98c-2.2148 2.2148-2.2148 5.8789 0 8.168l17.559 17.559c1.1445 1.1445 2.5938 1.6797 4.0469 1.6797 1.4492 0 2.9766-0.53516 4.0469-1.6797 2.2148-2.2148 2.2148-5.8789 0-8.168l-17.559-17.559c-2.2188-2.2148-5.8828-2.2148-8.0938 0z"/>
  <path d="m307.79 253.82c0 3.207 2.5938 5.7266 5.8008 5.7266h24.887c3.207 0 5.7266-2.5938 5.7266-5.7266 0-3.1289-2.5938-5.7266-5.7266-5.7266h-24.887c-3.2812 0.003906-5.8008 2.5977-5.8008 5.7266z"/>
  <path d="m296.11 217.33c1.4492 0 2.9766-0.53516 4.0469-1.6797l17.559-17.559c2.2148-2.2148 2.2148-5.8789 0-8.168-2.2148-2.2148-5.8789-2.2148-8.168 0l-17.559 17.559c-2.2148 2.2148-2.2148 5.8789 0 8.168 1.1445 1.0703 2.5977 1.6797 4.1211 1.6797z"/>
  <path d="m329.39 425.11c-2.9766-2.9766-7.7852-2.9766-10.762 0-10.152 10.078-10.152 26.566 0 36.719 4.1211 4.1992 4.1211 10.914 0 15.113-2.9766 2.9766-2.9766 7.7852 0 10.762 1.5273 1.4492 3.4336 2.2148 5.418 2.2148s3.8945-0.76172 5.418-2.2148c10.078-10.152 10.078-26.566 0-36.719-4.1211-4.1992-4.1211-10.914 0-15.113 2.9023-2.9766 2.9023-7.7852-0.074219-10.762z"/>
  <path d="m286.34 487.71c1.5273 1.5273 3.4336 2.2148 5.418 2.2148s3.8945-0.76172 5.418-2.2148c4.8867-4.8867 7.6328-11.449 7.6328-18.32 0-6.9453-2.6719-13.434-7.6328-18.32-4.1211-4.1992-4.1211-10.914 0-15.113 2.9766-2.9766 2.9766-7.7852 0-10.762-2.9766-2.9766-7.7852-2.9766-10.762 0-10.152 10.078-10.152 26.566 0 36.719 1.9844 1.9844 3.1289 4.7344 3.1289 7.5586s-1.1445 5.4961-3.1289 7.5586c-3.0508 2.8164-3.0508 7.625-0.074218 10.68z"/>
  <path d="m254.2 487.71c1.5273 1.4492 3.4336 2.2148 5.418 2.2148 1.9844 0 3.8945-0.76172 5.418-2.2148 10.078-10.152 10.078-26.566 0-36.719-4.1211-4.1992-4.1211-10.914 0-15.113 2.9766-2.9766 2.9766-7.7852 0-10.762-2.9766-2.9766-7.7852-2.9766-10.762 0-10.152 10.078-10.152 26.566 0 36.719 4.1211 4.1992 4.1211 10.914 0 15.113-3.0508 2.8984-3.0508 7.7852-0.074219 10.762z"/>
  <path d="m460.07 491.75h108.78v-61.297l67.328-67.328h-42.52l-24.809 24.809v-186.48h-27.023l-13.281-30.074-41.449 14.117-27.023-22.137v118.7l-51.527-39.008-28.242 28.242 79.77 75.801zm70.457-246.18c0-4.1992 3.4336-7.6328 7.6328-7.6328 4.1992 0 7.6328 3.4336 7.6328 7.6328v29.082c0 4.1992-3.4336 7.6328-7.6328 7.6328-4.1992 0-7.6328-3.4336-7.6328-7.6328zm-48.09 109.16c0-4.1992 3.4336-7.6328 7.6328-7.6328s7.6328 3.4336 7.6328 7.6328v29.082c0 4.1992-3.4336 7.6328-7.6328 7.6328s-7.6328-3.4336-7.6328-7.6328z"/>
  <path d="m431.14 535.11 20-28.09h-99.617l23.891 28.09z"/>
  <path d="m377.25 550.38-5.0391 13.586 59.695 43.281 38.398-28.012-37.863-28.855z"/>
  <path d="m357.33 560.23 5.8789-15.879-31.68-37.328h-42.902l3.9688 32.062 30.992 28.852z"/>
  <path d="m501.68 535.64-11.375-28.625h-20.379l-24.352 34.199 35.496 27.098z"/>
  <path d="m523.51 613.73 6.2617 22.902h81.449v-14.426l-49.621-16.566z"/>
  <path d="m482.52 589.23-40.914 29.77 8.7773 17.633h63.586l-6.7148-24.582z"/>
  <path d="m361.38 574.96-36.871 8.3984-37.328 25.648 27.711 27.633h118.47l-7.4805-14.887z"/>
  <path d="m597.55 543.43 33.969 33.359h5.1133v-63.664z"/>
  <path d="m574.73 549.46-60.535-5.0352-21.297 33.66 23.359 21.527 40.305-8.5469z"/>
  <path d="m515.57 529.23 68.09 5.6484 35.953-27.863h-112.9z"/>
  <path d="m623.05 589.92-34.426-33.895-16.184 37.098 48.93 16.336c3.1289 1.0703 5.1914 3.9688 5.1914 7.25v19.93h10.078v-44.578h-8.2461c-2.0586 0-3.9688-0.76562-5.3438-2.1406z"/>
  <path d="m309.16 575.34-26.793-24.961h-65.344l-4.1211 38.016 60.688 11.449z"/>
  <path d="m203.13 602.06s-0.078124 0-0.078124-0.078125c-0.60938-0.15234-1.2969-0.30469-1.9102-0.60938l-34.352-17.176 0.003906 52.441h126.49l-21.68-21.602z"/>
  <path d="m212.82 535.11h63.895l-3.4375-28.09h-97.098z"/>
  <path d="m202.14 546.18-38.781-29.77v49.004l34.734 17.406z"/>
 </g>
</svg>